<?xml version="1.0" encoding="UTF-8" standalone="no"?>
<svg
   viewBox="107.5 102.76653 297 300"
   version="1.1"
   id="svg6"
   sodipodi:docname="logo.svg"
   inkscape:version="1.1 (c68e22c387, 2021-05-23)"
   width="297"
   height="300"
   xmlns:inkscape="http://www.inkscape.org/namespaces/inkscape"
   xmlns:sodipodi="http://sodipodi.sourceforge.net/DTD/sodipodi-0.dtd"
   xmlns="http://www.w3.org/2000/svg"
   xmlns:svg="http://www.w3.org/2000/svg">
  <defs
     id="defs10">
    <linearGradient
       id="go_enj64613a_553"
       x1="0.28632489"
       y1="63.693829"
       x2="76.435799"
       y2="63.693829"
       data-uid="o_enj65m0b7_5"
       gradientTransform="matrix(3.3580551,0,0,1.9472885,20.10754,-24.24451)"
       gradientUnits="userSpaceOnUse">
      <stop
         offset="0%"
         stop-color="rgb(255, 230, 109)"
         stop-opacity="1"
         data-uid="o_enj65m0b7_6"
         id="stop27" />
      <stop
         offset="74%"
         stop-color="rgb(248,112,96)"
         stop-opacity="1"
         data-uid="o_enj65m0b7_7"
         id="stop29" />
    </linearGradient>
  </defs>
  <sodipodi:namedview
     id="namedview8"
     pagecolor="#ffffff"
     bordercolor="#666666"
     borderopacity="1.0"
     inkscape:pageshadow="2"
     inkscape:pageopacity="0.0"
     inkscape:pagecheckerboard="0"
     showgrid="false"
     inkscape:zoom="1.5645754"
     inkscape:cx="35.79246"
     inkscape:cy="127.83021"
     inkscape:window-width="1920"
     inkscape:window-height="974"
     inkscape:window-x="-11"
     inkscape:window-y="-11"
     inkscape:window-maximized="1"
     inkscape:current-layer="g4" />
  <g
     transform="translate(107.5,102.76653)"
     fill="#292929"
     id="g4">
    <path
       d="M 46,68 H 10 v 91 L 0,174 H 297 L 287,159 V 85 h -9 V 66 h -8 l -1,-46 h -1 l -1,46 h -7 v 19 h -9 v 74 h -7 V 95 h -20 v 64 h -6 V 61 L 189,45 v 94 h -7 V 26 l -29,14 v 119 h -4 V 70 h -23 v 15 h -6 v 25 H 85 v 49 H 80 V 85 H 75 V 49 H 71 V 32 H 67 L 66,0 h -1 l -1,32 h -4 v 17 h -5 v 36 h -4 v 74 h -5 z m 186,76 h -5 v 6 h 5 z m 0,-17 h -5 v 6 h 5 z m 0,-18 h -5 v 6 h 5 z m 8,26 h -5 v 6 h 5 z m 0,-8 h -5 v 6 h 5 z m 0,-9 h -5 v 6 h 5 z m 0,-9 h -5 v 6 h 5 z m 0,-8 h -5 v 6 h 5 z m -100,37 h 4 v -6 h -4 z m 0,9 h 4 v -6 h -4 z m 0,9 h 4 v -6 h -4 z m -8,-18 h 5 v -6 h -5 z m 0,18 h 5 v -6 h -5 z m 8,-39 h 4 v 6 h -4 z m 0,-9 h 4 v 6 h -4 z m 0,-8 h 4 v 6 h -4 z m 0,-9 h 4 v 6 h -4 z m 0,-9 h 4 v 6 h -4 z m -8,26 h 5 v 6 h -5 z m 0,-17 h 5 v 6 h -5 z m -37,60 h -5 v 6 h 5 z m 15,0 h -5 v 6 h 5 z m -15,-9 h -5 v 6 h 5 z m 0,-9 h -5 v 6 h 5 z m 0,-9 h -5 v 6 h 5 z m 0,-8 h -5 v 6 h 5 z m 7,26 h -5 v 6 h 5 z m 0,-18 h -5 v 6 h 5 z m 8,18 h -5 v 6 h 5 z m 0,-9 h -5 v 6 h 5 z m 0,-9 h -5 v 6 h 5 z m 0,-8 h -5 v 6 h 5 z m 8,26 h -5 v 6 h 5 z m 0,-9 h -5 v 6 h 5 z m 0,-17 h -5 v 6 h 5 z M 18,151 h -4 v 6 h 4 z m 0,-9 h -4 v 6 h 4 z m 16,9 h -5 v 6 h 5 z m 0,-9 h -5 v 6 h 5 z m 7,9 h -4 v 6 h 4 z m 26,-35 h -4 v 6 h 4 z m 0,-8 h -4 v 6 h 4 z m 0,-9 h -4 v 6 h 4 z m 0,-9 h -4 v 6 h 4 z m 0,-8 h -4 v 6 h 4 z m 0,-9 h -4 v 6 h 4 z m 0,-9 h -4 v 6 h 4 z m 0,-9 h -4 v 7 h 4 z m -49,78 h -4 v 6 h 4 z m 0,-8 h -4 v 6 h 4 z m 0,-9 h -4 v 6 h 4 z m 0,-9 h -4 v 6 h 4 z m 0,-26 h -4 v 6 h 4 z m 0,-8 h -4 v 6 h 4 z m 8,60 h -5 v 6 h 5 z m 0,-17 h -5 v 6 h 5 z m 0,-17 h -5 v 6 h 5 z m 0,-9 h -5 v 6 h 5 z m 0,-9 h -5 v 6 h 5 z m 8,52 h -5 v 6 h 5 z m 0,-8 h -5 v 6 h 5 z m 0,-9 h -5 v 6 h 5 z m 0,-9 h -5 v 6 h 5 z m 0,-17 h -5 v 6 h 5 z m 0,-9 h -5 v 6 h 5 z m 7,52 h -4 v 6 h 4 z m 0,-8 h -4 v 6 h 4 z m 0,-18 h -4 v 6 h 4 z m 0,-8 h -4 v 6 h 4 z m 0,-9 h -4 v 6 h 4 z M 26,73 h -5 v 6 h 5 z m 15,0 h -4 v 6 h 4 z m 121,32 h -5 v 6 h 5 z m 0,-9 h -5 v 6 h 5 z m 0,-8 h -5 v 6 h 5 z m 0,-18 h -5 v 6 h 5 z m 0,-9 h -5 v 7 h 5 z m 0,-8 h -5 v 6 h 5 z m 8,52 h -5 v 6 h 5 z m 0,-17 h -5 v 6 h 5 z m 0,-18 h -5 v 6 h 5 z m 0,-17 h -5 v 6 h 5 z m 8,43 h -5 v 6 h 5 z m 0,-8 h -5 v 6 h 5 z m 0,-9 h -5 v 6 h 5 z m 0,-18 h -5 v 7 h 5 z m -8,-17 h -5 v 6 h 5 z m 8,0 h -5 v 6 h 5 z m 83,106 h -7 v 6 h 7 z m 0,-9 h -7 v 6 h 7 z m 0,-17 h -7 v 6 h 7 z m 0,-18 h -7 v 6 h 7 z m 0,-8 h -7 v 6 h 7 z m 11,52 h -7 v 6 h 7 z m 0,-18 h -7 v 6 h 7 z m 0,-8 h -7 v 6 h 7 z m 0,-9 h -7 v 6 h 7 z m 0,-17 h -7 v 6 h 7 z m 11,52 h -7 v 6 h 7 z m 0,-9 h -7 v 6 h 7 z m 0,-17 h -7 v 6 h 7 z m 0,-18 h -7 v 6 h 7 z M 272,89 h -7 v 6 h 7 z m 11,0 h -7 v 6 h 7 z m -84,37 h -5 v 6 h 5 z m 0,-9 h -5 v 6 h 5 z m 0,-9 h -5 v 6 h 5 z m 0,-17 h -5 v 6 h 5 z m 0,-9 h -5 v 6 h 5 z m 8,44 h -5 v 6 h 5 z m 0,-18 h -5 v 6 h 5 z m 0,-17 h -5 v 6 h 5 z m 0,-17 h -5 v 6 h 5 z m 8,43 h -5 v 6 h 5 z m 0,-9 h -5 v 6 h 5 z m 0,-8 h -5 v 6 h 5 z m 0,-9 h -5 v 6 h 5 z m 0,-9 h -5 v 6 h 5 z M 199,65 h -5 v 6 h 5 z m 8,0 h -5 v 6 h 5 z"
       fill="#292929"
       id="path2" />
    <path
       fill="url(#go_enj64613a_553)"
       d="m 267.88933,71.682484 c 4.91232,0 8.89383,-3.98406 8.89383,-8.89638 0,-4.90976 -3.98151,-8.89383 -8.89383,-8.89383 -4.91232,0 -8.89382,3.98407 -8.89382,8.89383 0,1.07913 0.20201,2.10966 0.5549,3.0686 L 233.5875,87.97164 200.6921,68.621564 c 0.18668,-0.75948 0.29663,-1.5522 0.29663,-2.3705 0,-5.47745 -4.43924,-9.91669 -9.91669,-9.91669 -2.22218,0 -4.26535,0.73902 -5.91728,1.97413 l -29.72195,-23.60009 c 0.13808,-0.56258 0.21991,-1.14561 0.21991,-1.7491 0,-4.04288 -3.27573,-7.31606 -7.31605,-7.31606 -4.04032,0 -7.31606,3.27573 -7.31606,7.31606 0,1.86417 0.70323,3.56213 1.85139,4.8535 l -14.92106,31.9339 c -0.66487,-0.11507 -1.34507,-0.18923 -2.04574,-0.18923 -2.19916,0 -4.25001,0.61116 -6.0119,1.65449 L 80.41576,53.529164 c 0.0921,-0.57537 0.15343,-1.16096 0.15343,-1.76189 0,-6.08606 -4.93277,-11.01883 -11.01883,-11.01883 -6.0835,0 -11.01883,4.93277 -11.01883,11.01883 0,6.08606 4.93277,11.01883 11.01883,11.01883 3.45729,0 6.53612,-1.59311 8.55628,-4.08124 l 37.54432,16.815926 c -0.98195,1.72353 -1.5522,3.71301 -1.5522,5.84057 0,2.17871 0.74925,4.10425 1.77468,5.85591 l -21.05316,21.06339 c -2.90494,-2.07387 -6.40826,-3.30898 -10.23634,-3.30898 -6.75603,0 -12.56847,3.83831 -15.55268,9.4206 l -0.24549,-0.0818 c -0.003,0.0307 -0.0102,0.0588 -0.0128,0.0895 L 39.42181,101.06179 c 0.0409,-0.34266 0.0639,-0.69299 0.0639,-1.04588 0,-5.0862 -4.12215,-9.20836 -9.20836,-9.20836 -5.0862,0 -9.20836,4.12216 -9.20836,9.20836 0,5.08621 4.12216,9.20836 9.20836,9.20836 2.69526,0 5.11178,-1.16351 6.79439,-3.00979 l 29.97767,13.62715 c -0.0128,0.0332 -0.023,0.0639 -0.0384,0.0946 l 0.1432,0.0486 c -0.13808,0.88989 -0.27617,1.77467 -0.27617,2.69781 0,4.9967 2.07898,9.50243 5.40841,12.7219 l -0.0435,0.0333 c 0.0102,0.0128 0.0205,0.0256 0.0307,0.0358 L 56.9997,157.98182 c -0.39637,-0.069 -0.80295,-0.11252 -1.22233,-0.11252 -3.78205,0 -6.84809,3.06349 -6.84809,6.8481 0,3.78205 3.06604,6.84809 6.84809,6.84809 3.78205,0 6.84809,-3.06604 6.84809,-6.84809 0,-1.28114 -0.358,-2.4779 -0.97172,-3.50332 l 13.71664,-20.21185 1.81559,-2.24263 c 2.25286,1.04076 4.75377,1.63914 7.40044,1.63914 4.86373,0 9.27996,-1.97158 12.48665,-5.15525 l 17.88226,12.76282 c -0.50887,1.31439 -0.85409,2.7106 -0.85409,4.19631 0,6.51566 5.28055,11.80644 11.80644,11.80644 5.52092,0 10.13917,-3.79228 11.43309,-8.90405 l 40.69987,-12.58894 c 2.49835,4.64126 7.39788,7.79936 13.03899,7.79936 3.25528,0 6.25739,-1.06634 8.70204,-2.84868 l 18.20703,16.90543 c -0.0972,0.49353 -0.15087,1.00497 -0.15087,1.52663 0,4.43412 3.59537,8.0295 8.0295,8.0295 4.43413,0 8.02695,-3.59282 8.02695,-8.0295 0,-4.43157 -3.59282,-8.02695 -8.02695,-8.02695 -1.80792,0 -3.47263,0.60349 -4.81515,1.61357 L 203.6354,143.3164 c 1.41156,-2.26821 2.28355,-4.93533 2.28355,-7.79936 C 205.91895,128.31861 201.6715,122.32206 194,121 V 75.75094 c 2.55716,-0.43984 2.76685,-1.22233 3.86899,-2.2452 l 34.09215,20.06865 28.58657,40.03245 c -0.23526,0.58814 -0.37335,1.22999 -0.37335,1.90508 0,2.87682 2.32702,5.20895 5.20383,5.20895 2.87682,0 5.20895,-2.33213 5.20895,-5.20895 0,-2.87681 -2.33469,-5.20894 -5.2115,-5.20894 -0.0767,0 -0.15343,0.008 -0.23015,0.0128 l -27.4384,-38.40864 25.39523,-21.631076 c 1.38087,0.88734 3.02257,1.40644 4.78701,1.40644 z m -91.61561,63.829436 c 0,0.53701 0.0332,1.06379 0.0895,1.58545 l -39.06073,12.08005 c -1.33484,-5.0504 -5.92239,-8.78386 -11.39985,-8.78386 -2.87169,0 -5.40585,1.15328 -7.44902,2.84612 l -17.99734,-12.84209 c 1.14305,-2.35259 1.83349,-4.93533 1.83349,-7.71497 0,-3.81529 -1.24534,-7.34163 -3.29875,-10.22611 l 21.05316,-21.06338 c 1.75421,1.02542 3.6772,1.77467 5.85846,1.77467 4.19887,0 7.87352,-2.19149 9.96528,-5.49024 l 44.03953,38.13759 c -2.25542,2.60064 -3.63373,5.98377 -3.63373,9.69677 z m 12.60683,-14.51703 c -2.55717,0.25572 -2.90239,0.69811 -4.08124,1.2837 L 137.84973,81.75772 c 0.005,-0.13297 -0.0588,-0.26083 -0.0588,-0.3938 0,-3.7974 -1.83604,-7.16518 -4.61824,-9.323426 l 14.82901,-31.78047 c 0.11763,0.005 0.22503,0.0179 0.34266,0.0179 1.3553,0 2.61598,-0.3759 3.70534,-1.02031 l 29.71683,23.60009 c -0.38613,1.06123 -0.28896,2.20172 -0.28896,3.39592 0,4.49294 2.28867,8.280106 7.403,9.499866 z"
       id="path34"
       style="fill:url(#go_enj64613a_553);stroke-width:2.55717" />
    <path
       text="Cyber"
       text-anchor="middle"
       font-size="100px"
       letter-spacing="0"
       side="left"
       offset="0.5"
       dx="0"
       dy="0"
       space="preserve"
       href=""
       font-family="Montserrat"
       font-scale="contain"
       x="0"
       y="0"
       fill="#3a3a3a"
       font-weight="700"
       data-fl-textpath=""
       d="m 70.657305,246.52982 q -8.19743,0 -14.82431,-3.56243 -6.62689,-3.56243 -10.41916,-9.88287 -3.79226,-6.32044 -3.79226,-14.28803 v 0 q 0,-7.96759 3.79226,-14.28803 3.79227,-6.32044 10.41916,-9.88287 6.62688,-3.56243 14.90092,-3.56243 v 0 q 6.97164,0 12.60258,2.45156 5.63093,2.45157 9.46151,7.04825 v 0 l -7.96759,7.3547 q -5.43941,-6.28214 -13.48361,-6.28214 v 0 q -4.97974,0 -8.88693,2.18343 -3.90718,2.18342 -6.0906,6.0906 -2.18343,3.90719 -2.18343,8.88693 v 0 q 0,4.97974 2.18343,8.88692 2.18342,3.90719 6.0906,6.09061 3.90719,2.18343 8.88693,2.18343 v 0 q 8.0442,0 13.48361,-6.35875 v 0 l 7.96759,7.35469 q -3.83058,4.6733 -9.49982,7.12487 -5.66925,2.45156 -12.64088,2.45156 z m 59.067405,-42.13628 h 11.49171 l -18.61657,43.74512 q -2.83463,7.12486 -7.00995,10.0361 -4.17532,2.91123 -10.0744,2.91123 v 0 q -3.21768,0 -6.358755,-0.99595 -3.14107,-0.99595 -5.13296,-2.75801 v 0 l 4.36685,-8.50387 q 1.379004,1.22579 3.179375,1.91529 1.80037,0.6895 3.56243,0.6895 v 0 q 2.45157,0 3.9838,-1.18747 1.53223,-1.18748 2.75801,-3.94549 v 0 l 0.15322,-0.38306 -17.850465,-41.52339 h 12.334445 l 11.56832,27.96317 z m 40.75727,-0.61289 q 5.74586,0 10.45746,2.64309 4.7116,2.6431 7.393,7.43131 2.6814,4.78822 2.6814,11.14696 v 0 q 0,6.35875 -2.6814,11.14696 -2.6814,4.78822 -7.393,7.43131 -4.7116,2.6431 -10.45746,2.6431 v 0 q -8.50386,0 -12.94733,-5.3628 v 0 4.7499 h -11.4151 v -56.84567 h 11.95138 v 19.99558 q 4.52008,-4.97974 12.41105,-4.97974 z m -2.0685,32.63646 q 4.59668,0 7.54622,-3.10276 2.94954,-3.10276 2.94954,-8.31234 v 0 q 0,-5.20957 -2.94954,-8.31234 -2.94954,-3.10276 -7.54622,-3.10276 v 0 q -4.59669,0 -7.54623,3.10276 -2.94954,3.10277 -2.94954,8.31234 v 0 q 0,5.20958 2.94954,8.31234 2.94954,3.10276 7.54623,3.10276 z m 70.94217,-11.26187 q 0,0.22983 -0.22984,3.21768 v 0 h -31.18084 q 0.84272,3.83057 3.98379,6.0523 3.14107,2.22173 7.81437,2.22173 v 0 q 3.21768,0 5.70755,-0.95764 2.48987,-0.95765 4.63499,-3.02615 v 0 l 6.35874,6.89502 q -5.82246,6.6652 -17.00773,6.6652 v 0 q -6.97164,0 -12.33444,-2.71971 -5.3628,-2.7197 -8.27403,-7.54622 -2.91124,-4.82652 -2.91124,-10.95544 v 0 q 0,-6.0523 2.87293,-10.91712 2.87293,-4.86483 7.89098,-7.58453 5.01805,-2.71971 11.22357,-2.71971 v 0 q 6.0523,0 10.95543,2.60479 4.90314,2.60479 7.69945,7.46961 2.79632,4.86483 2.79632,11.30019 z M 217.98106,212.8208 q -4.0604,0 -6.81841,2.29834 -2.75801,2.29834 -3.37091,6.28214 v 0 h 20.30203 q -0.61289,-3.90719 -3.3709,-6.24383 -2.75801,-2.33665 -6.74181,-2.33665 z m 40.75728,-2.98785 q 2.14512,-2.98784 5.78416,-4.52007 3.63904,-1.53223 8.38895,-1.53223 v 0 11.03205 q -1.9919,-0.15323 -2.6814,-0.15323 v 0 q -5.13297,0 -8.0442,2.87293 -2.91123,2.87293 -2.91123,8.61878 v 0 19.4593 h -11.95138 v -41.21694 h 11.4151 z"
       id="path55"
       style="stroke-width:0.766114" />
    <path
       text="City"
       text-anchor="middle"
       font-size="100px"
       letter-spacing="0"
       side="left"
       offset="0.5"
       dx="0"
       dy="0"
       space="preserve"
       href=""
       font-family="Montserrat"
       font-scale="contain"
       x="0"
       y="0"
       fill="#f87060"
       data-fl-textpath=""
       d="m 135.79941,289.30721 q -4.27914,0 -7.71479,-1.8927 -3.43565,-1.89269 -5.39006,-5.24605 -1.95441,-3.35336 -1.95441,-7.50906 v 0 q 0,-4.15569 1.95441,-7.50905 1.95441,-3.35336 5.41064,-5.24605 3.45622,-1.8927 7.73535,-1.8927 v 0 q 3.20935,0 5.92496,1.06979 2.7156,1.06978 4.60829,3.12705 v 0 l -1.93384,1.93384 q -3.37393,-3.41507 -8.51712,-3.41507 v 0 q -3.41507,0 -6.21297,1.56353 -2.79789,1.56352 -4.38199,4.27913 -1.58411,2.7156 -1.58411,6.08953 v 0 q 0,3.37394 1.58411,6.08954 1.5841,2.7156 4.38199,4.27913 2.7979,1.56353 6.21297,1.56353 v 0 q 5.18434,0 8.51712,-3.45622 v 0 l 1.93384,1.93384 q -1.89269,2.05727 -4.62887,3.14763 -2.73617,1.09036 -5.94552,1.09036 z m 16.4582,-0.24688 v -21.64254 h 2.92133 v 21.64254 z m 1.48124,-26.37427 q -0.9052,0 -1.52238,-0.61718 -0.61719,-0.61718 -0.61719,-1.48124 v 0 q 0,-0.82291 0.61719,-1.44009 0.61718,-0.61719 1.52238,-0.61719 v 0 q 0.9052,0 1.52238,0.59661 0.61719,0.59661 0.61719,1.41952 v 0 q 0,0.90521 -0.61719,1.52239 -0.61718,0.61718 -1.52238,0.61718 z m 19.95557,22.95919 1.02864,2.09843 q -0.82291,0.74062 -2.0367,1.1315 -1.2138,0.39088 -2.53045,0.39088 v 0 q -3.04477,0 -4.69059,-1.64582 -1.64582,-1.64582 -1.64582,-4.64944 v 0 -13.08428 h -3.86768 v -2.46873 h 3.86768 v -4.73173 h 2.92133 v 4.73173 h 6.58328 v 2.46873 h -6.58328 v 12.91969 q 0,1.93384 0.96692,2.94191 0.96692,1.00806 2.77732,1.00806 v 0 q 0.9052,0 1.74869,-0.28801 0.84348,-0.28802 1.46066,-0.82292 z m 21.23108,-18.22746 h 2.88019 l -10.82127,24.23471 q -1.31666,3.04477 -3.04477,4.32028 -1.72811,1.27551 -4.15569,1.27551 v 0 q -1.56353,0 -2.92133,-0.49375 -1.35781,-0.49374 -2.3453,-1.48124 v 0 l 1.3578,-2.18071 q 1.64582,1.64582 3.94997,1.64582 v 0 q 1.48124,0 2.53045,-0.82291 1.04921,-0.82291 1.95441,-2.79789 v 0 l 0.94635,-2.09842 -9.66919,-21.6014 h 3.04476 l 8.14681,18.39205 z"
       id="path82"
       style="stroke-width:0.411455" />
  </g>
</svg>
